<svg xmlns="http://www.w3.org/2000/svg" width="16.348" height="10.806" viewBox="0 0 16.348 10.806">
  <path id="Union_1" data-name="Union 1" d="M-904.992-169q-5.181,0-5.181-4.778a4.814,4.814,0,0,1,1.439-3.647,5.337,5.337,0,0,1,3.852-1.378h2.168v0h2.706q5.183,0,5.182,4.779a4.816,4.816,0,0,1-1.439,3.647A5.34,5.34,0,0,1-900.117-169h-2.168v0Zm-2.905-7.731a3.868,3.868,0,0,0-1.073,2.926q0,3.766,4.006,3.766h1.531v-7.725H-904.9A4.151,4.151,0,0,0-907.9-176.729Zm6.331,6.69h1.463a4.153,4.153,0,0,0,3-1.032A3.87,3.87,0,0,0-896.029-174q0-3.767-4.006-3.766h-1.531Z" transform="translate(910.674 179.303)" fill="#a4a8d1" stroke="rgba(0,0,0,0)" stroke-miterlimit="10" stroke-width="1"/>
</svg>
